<?xml version="1.0" encoding="UTF-8"?>
<svg width="199px" height="191px" viewBox="0 0 199 191" version="1.1" xmlns="http://www.w3.org/2000/svg" xmlns:xlink="http://www.w3.org/1999/xlink">
    <!-- Generator: Sketch 43.1 (39012) - http://www.bohemiancoding.com/sketch -->
    <title>noun_citizens_125548</title>
    <desc>Created with Sketch.</desc>
    <defs></defs>
    <g id="Page-1" stroke="none" stroke-width="1" fill="none" fill-rule="evenodd">
        <g id="noun_citizens_125548" fill-rule="nonzero" fill="#40A946">
            <path d="M114.047619,162.857143 C116.666667,166.904762 119.761905,170.714286 123.809524,173.333333 C129.52381,177.380952 136.190476,179.761905 143.809524,179.761905 C160,179.761905 173.333333,168.809524 177.380952,154.047619 C178.333333,151.190476 178.571429,148.333333 178.571429,145 C178.571429,143.809524 178.571429,142.857143 178.333333,141.904762 C177.142857,127.142857 166.428571,114.52381 152.142857,111.190476 C149.52381,110.714286 146.666667,110 143.809524,110 C142.619048,110 141.428571,110 140,110.238095 C139.52381,110.238095 138.809524,110.238095 138.333333,110.47619 C121.904762,113.095238 108.809524,127.619048 108.809524,145 C108.809524,151.190476 110.952381,157.619048 114.047619,162.857143 Z M101.190476,163.571429 C98.5714286,157.857143 97.1428571,151.428571 97.1428571,144.761905 C97.1428571,123.571429 111.428571,105.952381 130.47619,100 C131.666667,99.7619048 133.095238,99.5238095 134.285714,99.047619 C129.52381,91.4285714 124.047619,85.4761905 118.095238,81.4285714 C115,79.047619 111.904762,77.3809524 108.809524,76.1904762 C105,74.7619048 101.666667,73.8095238 98.0952381,73.8095238 C95.2380952,73.8095238 91.9047619,74.2857143 88.8095238,75.4761905 C85.7142857,76.6666667 82.3809524,78.0952381 79.2857143,80.4761905 C64.5238095,90.2380952 50.952381,111.428571 50.952381,140.47619 C50.952381,143.095238 51.4285714,145.47619 52.3809524,147.380952 C53.3333333,149.761905 54.7619048,151.428571 56.4285714,153.095238 C58.5714286,154.761905 61.1904762,156.666667 64.2857143,157.857143 C73.8095238,162.142857 87.6190476,163.809524 101.190476,163.571429 Z M198.571429,126.666667 C198.571429,134.285714 195.47619,140.714286 190.47619,145.714286 C190.47619,145.714286 190.47619,145.952381 190.238095,145.952381 C189.285714,170.952381 169.047619,190.952381 143.809524,190.952381 C129.761905,190.952381 117.380952,184.761905 109.047619,175.238095 C86.1904762,177.380952 60.2380952,173.095238 48.5714286,161.666667 C47.3809524,160.47619 46.4285714,159.285714 45.4761905,158.095238 C30.4761905,157.142857 16.1904762,153.095238 8.57142857,145.714286 C3.33333333,140.47619 0.476190476,134.047619 0.476190476,126.666667 C0.476190476,110.952381 5.71428571,93.5714286 14.5238095,80.2380952 C18.8095238,73.5714286 23.8095238,68.3333333 29.2857143,64.2857143 C30.2380952,63.3333333 30.4761905,62.1428571 30.7142857,61.1904762 C30.952381,59.5238095 30.4761905,57.3809524 29.2857143,55.952381 C24.047619,50.2380952 20.4761905,42.3809524 20.4761905,33.5714286 C20.4761905,15.2380952 35.2380952,0.476190476 53.5714286,0.476190476 C61.9047619,0.476190476 69.5238095,3.57142857 75.2380952,8.80952381 C81.6666667,3.57142857 89.5238095,0.714285714 98.0952381,0.714285714 C107.380952,0.714285714 115.714286,4.28571429 122.142857,9.76190476 C127.857143,4.04761905 136.190476,0.476190476 145,0.476190476 C163.333333,0.476190476 178.095238,15.2380952 178.095238,33.5714286 C178.095238,41.9047619 175,49.7619048 169.285714,55.952381 C168.095238,57.6190476 167.857143,59.5238095 167.857143,61.1904762 C168.095238,62.3809524 168.333333,63.5714286 169.285714,64.2857143 C174.761905,68.3333333 179.761905,73.5714286 184.047619,80.2380952 C193.333333,93.5714286 198.571429,111.190476 198.571429,126.666667 Z M187.619048,130 C187.857143,128.809524 187.857143,127.857143 187.857143,126.904762 C188.095238,89.5238095 163.095238,66.6666667 145.47619,66.6666667 C140,66.6666667 133.571429,69.047619 127.380952,73.0952381 C132.619048,77.1428571 137.619048,82.6190476 141.666667,89.047619 C143.809524,91.9047619 145.47619,94.7619048 146.904762,98.3333333 C165.952381,99.7619048 181.904762,112.619048 187.619048,130 Z M163.571429,46.6666667 C166.190476,42.8571429 167.619048,38.5714286 167.619048,33.5714286 C167.619048,21.1904762 157.380952,10.952381 145,10.952381 C138.571429,10.952381 133.095238,13.5714286 129.047619,17.6190476 C132.619048,23.3333333 134.761905,30 134.761905,37.1428571 C134.761905,42.3809524 133.571429,46.9047619 131.904762,51.6666667 C135.714286,54.5238095 140.238095,55.952381 145.238095,55.952381 C151.666667,55.952381 157.380952,53.3333333 161.428571,49.047619 C162.142857,48.3333333 162.857143,47.6190476 163.571429,46.6666667 Z M122.619048,36.4285714 C122.619048,22.8571429 111.666667,11.6666667 97.8571429,11.6666667 C84.047619,11.6666667 73.0952381,22.6190476 73.0952381,36.4285714 C73.0952381,50.2380952 84.047619,61.1904762 97.8571429,61.1904762 C111.666667,61.1904762 122.619048,50.2380952 122.619048,36.4285714 Z M61.9047619,37.3809524 C61.9047619,29.5238095 64.2857143,22.6190476 68.3333333,16.6666667 C64.2857143,13.0952381 59.2857143,11.1904762 53.5714286,11.1904762 C41.1904762,11.1904762 30.952381,21.4285714 30.952381,33.8095238 C30.952381,38.8095238 32.3809524,43.0952381 35.2380952,46.9047619 C36.1904762,47.8571429 36.6666667,48.5714286 37.3809524,49.5238095 C41.4285714,53.8095238 47.1428571,56.4285714 53.5714286,56.4285714 C57.8571429,56.4285714 61.9047619,55.2380952 65.2380952,52.8571429 C62.8571429,48.0952381 61.9047619,42.8571429 61.9047619,37.3809524 Z M55.2380952,89.047619 C59.5238095,82.1428571 64.7619048,76.6666667 70.7142857,72.1428571 C65.2380952,68.3333333 59.047619,66.4285714 53.8095238,66.4285714 C36.1904762,66.4285714 11.1904762,89.2857143 11.1904762,126.428571 C11.1904762,131.190476 12.6190476,134.761905 16.1904762,138.095238 C20.952381,142.380952 30.2380952,145.238095 40.4761905,146.428571 C40,144.285714 40,142.380952 40,140 C39.5238095,123.095238 45.2380952,103.809524 55.2380952,89.047619 Z" id="Shape"></path>
            <path d="M135.714286,161.904762 L125.47619,152.142857 C123.809524,150.714286 123.333333,148.571429 124.285714,146.428571 C125.714286,143.095238 130.47619,141.904762 132.857143,144.52381 C135,146.428571 136.904762,148.333333 139.047619,150.47619 C145,143.809524 150.952381,137.380952 156.666667,130.714286 C159.285714,127.857143 163.809524,128.809524 165.47619,132.142857 C166.428571,134.047619 165.952381,136.190476 164.52381,137.857143 C159.52381,143.571429 154.52381,149.285714 149.285714,154.761905 L143.333333,161.428571 C142.380952,162.619048 140.952381,163.095238 139.285714,163.095238 C138.095238,163.333333 136.666667,162.857143 135.714286,161.904762 Z" id="Shape"></path>
        </g>
    </g>
</svg>