<?xml version="1.0" encoding="UTF-8"?>
<svg width="761px" height="545px" viewBox="0 0 761 545" version="1.1" xmlns="http://www.w3.org/2000/svg" xmlns:xlink="http://www.w3.org/1999/xlink">
    <!-- Generator: Sketch 43.1 (39012) - http://www.bohemiancoding.com/sketch -->
    <title>Current_architecture</title>
    <desc>Created with Sketch.</desc>
    <defs></defs>
    <g id="Page-1" stroke="none" stroke-width="1" fill="none" fill-rule="evenodd">
        <g id="Current_architecture" fill-rule="nonzero">
            <g id="noun_goverment_4180594" transform="translate(562.000000, 358.000000)" fill="#000000">
                <g id="Group">
                    <path d="M63.6808511,154.87234 C61.9182402,154.87234 60.4893617,156.301219 60.4893617,158.06383 L60.4893617,164.446809 C60.4893617,166.209419 61.9182402,167.638298 63.6808511,167.638298 C65.443462,167.638298 66.8723404,166.209419 66.8723404,164.446809 L66.8723404,158.06383 C66.8723404,156.301219 65.443462,154.87234 63.6808511,154.87234 Z" id="Shape"></path>
                    <path d="M136.319149,154.87234 C134.556538,154.87234 133.12766,156.301219 133.12766,158.06383 L133.12766,164.446809 C133.12766,166.209419 134.556538,167.638298 136.319149,167.638298 C138.08176,167.638298 139.510638,166.209419 139.510638,164.446809 L139.510638,158.06383 C139.510638,156.301219 138.08176,154.87234 136.319149,154.87234 Z" id="Shape"></path>
                    <path d="M63.6808511,121.531915 C61.9182402,121.531915 60.4893617,122.960793 60.4893617,124.723404 L60.4893617,131.106383 C60.4893617,132.868994 61.9182402,134.297872 63.6808511,134.297872 C65.443462,134.297872 66.8723404,132.868994 66.8723404,131.106383 L66.8723404,124.723404 C66.8723404,122.960793 65.443462,121.531915 63.6808511,121.531915 Z" id="Shape"></path>
                    <path d="M26.4468085,143.425532 C28.2045909,143.413929 29.626695,141.991825 29.6382979,140.234043 L29.6382979,133.851064 C29.6382979,132.088453 28.2094194,130.659574 26.4468085,130.659574 C24.6841976,130.659574 23.2553191,132.088453 23.2553191,133.851064 L23.2553191,140.234043 C23.2553191,141.996653 24.6841976,143.425532 26.4468085,143.425532 L26.4468085,143.425532 Z" id="Shape"></path>
                    <path d="M26.4468085,167.617021 C28.2094194,167.617021 29.6382979,166.188143 29.6382979,164.425532 L29.6382979,158.042553 C29.6382979,156.279942 28.2094194,154.851064 26.4468085,154.851064 C24.6841976,154.851064 23.2553191,156.279942 23.2553191,158.042553 L23.2553191,164.425532 C23.2553191,166.188143 24.6841976,167.617021 26.4468085,167.617021 L26.4468085,167.617021 Z" id="Shape"></path>
                    <path d="M133.12766,124.723404 L133.12766,131.106383 C133.12766,132.868994 134.556538,134.297872 136.319149,134.297872 C138.08176,134.297872 139.510638,132.868994 139.510638,131.106383 L139.510638,124.723404 C139.510638,122.960793 138.08176,121.531915 136.319149,121.531915 C134.556538,121.531915 133.12766,122.960793 133.12766,124.723404 Z" id="Shape"></path>
                    <path d="M81.8510638,121.531915 C80.0884529,121.531915 78.6595745,122.960793 78.6595745,124.723404 L78.6595745,131.106383 C78.6595745,132.868994 80.0884529,134.297872 81.8510638,134.297872 C83.6136747,134.297872 85.0425532,132.868994 85.0425532,131.106383 L85.0425532,124.723404 C85.0425532,122.960793 83.6136747,121.531915 81.8510638,121.531915 Z" id="Shape"></path>
                    <path d="M100,121.531915 C98.2373891,121.531915 96.8085106,122.960793 96.8085106,124.723404 L96.8085106,131.106383 C96.8085106,132.868994 98.2373891,134.297872 100,134.297872 C101.762611,134.297872 103.191489,132.868994 103.191489,131.106383 L103.191489,124.723404 C103.191489,122.960793 101.762611,121.531915 100,121.531915 L100,121.531915 Z" id="Shape"></path>
                    <path d="M118.148936,121.531915 C116.386325,121.531915 114.957447,122.960793 114.957447,124.723404 L114.957447,131.106383 C114.957447,132.868994 116.386325,134.297872 118.148936,134.297872 C119.911547,134.297872 121.340426,132.868994 121.340426,131.106383 L121.340426,124.723404 C121.340426,122.960793 119.911547,121.531915 118.148936,121.531915 L118.148936,121.531915 Z" id="Shape"></path>
                    <path d="M173.553191,143.425532 C175.315802,143.425532 176.744681,141.996653 176.744681,140.234043 L176.744681,133.851064 C176.744681,132.088453 175.315802,130.659574 173.553191,130.659574 C171.790581,130.659574 170.361702,132.088453 170.361702,133.851064 L170.361702,140.234043 C170.373305,141.991825 171.795409,143.413929 173.553191,143.425532 L173.553191,143.425532 Z" id="Shape"></path>
                    <path d="M173.553191,167.617021 C175.315802,167.617021 176.744681,166.188143 176.744681,164.425532 L176.744681,158.042553 C176.744681,156.279942 175.315802,154.851064 173.553191,154.851064 C171.790581,154.851064 170.361702,156.279942 170.361702,158.042553 L170.361702,164.425532 C170.361702,166.188143 171.790581,167.617021 173.553191,167.617021 Z" id="Shape"></path>
                    <path d="M195.744681,180.319149 L194.042553,180.319149 L194.042553,117.468085 C194.042553,115.705474 192.613675,114.276596 190.851064,114.276596 L159.574468,114.276596 L159.574468,104.361702 C159.574468,102.599091 158.14559,101.170213 156.382979,101.170213 L137.808511,101.170213 L137.808511,74.4680851 L140.957447,74.4680851 C142.720058,74.4680851 144.148936,73.0392066 144.148936,71.2765957 C144.148936,69.5139848 142.720058,68.0851064 140.957447,68.0851064 L137.723404,68.0851064 C136.774846,48.622107 121.547973,32.8764467 102.12766,31.2765957 L102.12766,19.6595745 L120.765957,19.6595745 C122.528568,19.6595745 123.957447,18.230696 123.957447,16.4680851 L123.957447,3.70212766 C123.957447,1.93951676 122.528568,0.510638298 120.765957,0.510638298 L98.9574468,0.510638298 C98.1036302,0.504926958 97.283128,0.841579491 96.679375,1.44533249 C96.075622,2.04908549 95.7389695,2.86958768 95.7446809,3.72340426 L95.7446809,31.3829787 C76.3795013,33.0050092 61.1873297,48.6787508 60.1702128,68.0851064 L59.0425532,68.0851064 C57.2799423,68.0851064 55.8510638,69.5139848 55.8510638,71.2765957 C55.8510638,73.0392066 57.2799423,74.4680851 59.0425532,74.4680851 L60.0851064,74.4680851 L60.0851064,101.170213 L43.7234043,101.170213 C41.9607934,101.170213 40.5319149,102.599091 40.5319149,104.361702 L40.5319149,114.276596 L9.14893617,114.276596 C7.38632527,114.276596 5.95744681,115.705474 5.95744681,117.468085 L5.95744681,180.319149 L4.25531915,180.319149 C2.49270825,180.319149 1.06382979,181.748027 1.06382979,183.510638 C1.06382979,185.273249 2.49270825,186.702128 4.25531915,186.702128 L195.744681,186.702128 C197.507292,186.702128 198.93617,185.273249 198.93617,183.510638 C198.93617,181.748027 197.507292,180.319149 195.744681,180.319149 Z M102.12766,6.91489362 L117.574468,6.91489362 L117.574468,13.2978723 L102.12766,13.2978723 L102.12766,6.91489362 Z M40.4255319,180.319149 L12.3404255,180.319149 L12.3404255,120.744681 L40.5319149,120.744681 L40.4255319,180.319149 Z M98.9574468,37.4893617 C116.145548,37.5164243 130.338651,50.9262019 131.340426,68.0851064 L66.5531915,68.0851064 C67.5657958,50.9228378 81.7653518,37.5157719 98.9574468,37.4893617 L98.9574468,37.4893617 Z M131.425532,74.4680851 L131.425532,101.170213 L119.978723,101.170213 L119.978723,74.4680851 L131.425532,74.4680851 Z M113.595745,74.4680851 L113.595745,101.170213 L102.12766,101.170213 L102.12766,74.4680851 L113.595745,74.4680851 Z M95.7446809,74.4680851 L95.7446809,101.170213 L84.2978723,101.170213 L84.2978723,74.4680851 L95.7446809,74.4680851 Z M66.4680851,74.4680851 L77.9148936,74.4680851 L77.9148936,101.170213 L66.4680851,101.170213 L66.4680851,74.4680851 Z M96.8085106,180.319149 L85.5957447,180.319149 L85.5957447,153.191489 L96.8085106,153.191489 L96.8085106,180.319149 Z M114.404255,180.319149 L103.191489,180.319149 L103.191489,153.191489 L114.404255,153.191489 L114.404255,180.319149 Z M153.085106,180.319149 L120.787234,180.319149 L120.787234,149.957447 C120.787234,148.194836 119.358356,146.765957 117.595745,146.765957 L82.4042553,146.765957 C80.6416444,146.765957 79.212766,148.194836 79.212766,149.957447 L79.212766,180.319149 L46.9148936,180.319149 L46.9148936,107.553191 L153.191489,107.553191 L153.085106,180.319149 Z M187.659574,180.319149 L159.574468,180.319149 L159.574468,120.744681 L187.659574,120.744681 L187.659574,180.319149 Z" id="Shape"></path>
                </g>
            </g>
            <g id="noun_citizens_125548" transform="translate(264.000000, 0.000000)" fill="#40A946">
                <path d="M114.047619,162.857143 C116.666667,166.904762 119.761905,170.714286 123.809524,173.333333 C129.52381,177.380952 136.190476,179.761905 143.809524,179.761905 C160,179.761905 173.333333,168.809524 177.380952,154.047619 C178.333333,151.190476 178.571429,148.333333 178.571429,145 C178.571429,143.809524 178.571429,142.857143 178.333333,141.904762 C177.142857,127.142857 166.428571,114.52381 152.142857,111.190476 C149.52381,110.714286 146.666667,110 143.809524,110 C142.619048,110 141.428571,110 140,110.238095 C139.52381,110.238095 138.809524,110.238095 138.333333,110.47619 C121.904762,113.095238 108.809524,127.619048 108.809524,145 C108.809524,151.190476 110.952381,157.619048 114.047619,162.857143 Z M101.190476,163.571429 C98.5714286,157.857143 97.1428571,151.428571 97.1428571,144.761905 C97.1428571,123.571429 111.428571,105.952381 130.47619,100 C131.666667,99.7619048 133.095238,99.5238095 134.285714,99.047619 C129.52381,91.4285714 124.047619,85.4761905 118.095238,81.4285714 C115,79.047619 111.904762,77.3809524 108.809524,76.1904762 C105,74.7619048 101.666667,73.8095238 98.0952381,73.8095238 C95.2380952,73.8095238 91.9047619,74.2857143 88.8095238,75.4761905 C85.7142857,76.6666667 82.3809524,78.0952381 79.2857143,80.4761905 C64.5238095,90.2380952 50.952381,111.428571 50.952381,140.47619 C50.952381,143.095238 51.4285714,145.47619 52.3809524,147.380952 C53.3333333,149.761905 54.7619048,151.428571 56.4285714,153.095238 C58.5714286,154.761905 61.1904762,156.666667 64.2857143,157.857143 C73.8095238,162.142857 87.6190476,163.809524 101.190476,163.571429 Z M198.571429,126.666667 C198.571429,134.285714 195.47619,140.714286 190.47619,145.714286 C190.47619,145.714286 190.47619,145.952381 190.238095,145.952381 C189.285714,170.952381 169.047619,190.952381 143.809524,190.952381 C129.761905,190.952381 117.380952,184.761905 109.047619,175.238095 C86.1904762,177.380952 60.2380952,173.095238 48.5714286,161.666667 C47.3809524,160.47619 46.4285714,159.285714 45.4761905,158.095238 C30.4761905,157.142857 16.1904762,153.095238 8.57142857,145.714286 C3.33333333,140.47619 0.476190476,134.047619 0.476190476,126.666667 C0.476190476,110.952381 5.71428571,93.5714286 14.5238095,80.2380952 C18.8095238,73.5714286 23.8095238,68.3333333 29.2857143,64.2857143 C30.2380952,63.3333333 30.4761905,62.1428571 30.7142857,61.1904762 C30.952381,59.5238095 30.4761905,57.3809524 29.2857143,55.952381 C24.047619,50.2380952 20.4761905,42.3809524 20.4761905,33.5714286 C20.4761905,15.2380952 35.2380952,0.476190476 53.5714286,0.476190476 C61.9047619,0.476190476 69.5238095,3.57142857 75.2380952,8.80952381 C81.6666667,3.57142857 89.5238095,0.714285714 98.0952381,0.714285714 C107.380952,0.714285714 115.714286,4.28571429 122.142857,9.76190476 C127.857143,4.04761905 136.190476,0.476190476 145,0.476190476 C163.333333,0.476190476 178.095238,15.2380952 178.095238,33.5714286 C178.095238,41.9047619 175,49.7619048 169.285714,55.952381 C168.095238,57.6190476 167.857143,59.5238095 167.857143,61.1904762 C168.095238,62.3809524 168.333333,63.5714286 169.285714,64.2857143 C174.761905,68.3333333 179.761905,73.5714286 184.047619,80.2380952 C193.333333,93.5714286 198.571429,111.190476 198.571429,126.666667 Z M187.619048,130 C187.857143,128.809524 187.857143,127.857143 187.857143,126.904762 C188.095238,89.5238095 163.095238,66.6666667 145.47619,66.6666667 C140,66.6666667 133.571429,69.047619 127.380952,73.0952381 C132.619048,77.1428571 137.619048,82.6190476 141.666667,89.047619 C143.809524,91.9047619 145.47619,94.7619048 146.904762,98.3333333 C165.952381,99.7619048 181.904762,112.619048 187.619048,130 Z M163.571429,46.6666667 C166.190476,42.8571429 167.619048,38.5714286 167.619048,33.5714286 C167.619048,21.1904762 157.380952,10.952381 145,10.952381 C138.571429,10.952381 133.095238,13.5714286 129.047619,17.6190476 C132.619048,23.3333333 134.761905,30 134.761905,37.1428571 C134.761905,42.3809524 133.571429,46.9047619 131.904762,51.6666667 C135.714286,54.5238095 140.238095,55.952381 145.238095,55.952381 C151.666667,55.952381 157.380952,53.3333333 161.428571,49.047619 C162.142857,48.3333333 162.857143,47.6190476 163.571429,46.6666667 Z M122.619048,36.4285714 C122.619048,22.8571429 111.666667,11.6666667 97.8571429,11.6666667 C84.047619,11.6666667 73.0952381,22.6190476 73.0952381,36.4285714 C73.0952381,50.2380952 84.047619,61.1904762 97.8571429,61.1904762 C111.666667,61.1904762 122.619048,50.2380952 122.619048,36.4285714 Z M61.9047619,37.3809524 C61.9047619,29.5238095 64.2857143,22.6190476 68.3333333,16.6666667 C64.2857143,13.0952381 59.2857143,11.1904762 53.5714286,11.1904762 C41.1904762,11.1904762 30.952381,21.4285714 30.952381,33.8095238 C30.952381,38.8095238 32.3809524,43.0952381 35.2380952,46.9047619 C36.1904762,47.8571429 36.6666667,48.5714286 37.3809524,49.5238095 C41.4285714,53.8095238 47.1428571,56.4285714 53.5714286,56.4285714 C57.8571429,56.4285714 61.9047619,55.2380952 65.2380952,52.8571429 C62.8571429,48.0952381 61.9047619,42.8571429 61.9047619,37.3809524 Z M55.2380952,89.047619 C59.5238095,82.1428571 64.7619048,76.6666667 70.7142857,72.1428571 C65.2380952,68.3333333 59.047619,66.4285714 53.8095238,66.4285714 C36.1904762,66.4285714 11.1904762,89.2857143 11.1904762,126.428571 C11.1904762,131.190476 12.6190476,134.761905 16.1904762,138.095238 C20.952381,142.380952 30.2380952,145.238095 40.4761905,146.428571 C40,144.285714 40,142.380952 40,140 C39.5238095,123.095238 45.2380952,103.809524 55.2380952,89.047619 Z" id="Shape"></path>
                <path d="M135.714286,161.904762 L125.47619,152.142857 C123.809524,150.714286 123.333333,148.571429 124.285714,146.428571 C125.714286,143.095238 130.47619,141.904762 132.857143,144.52381 C135,146.428571 136.904762,148.333333 139.047619,150.47619 C145,143.809524 150.952381,137.380952 156.666667,130.714286 C159.285714,127.857143 163.809524,128.809524 165.47619,132.142857 C166.428571,134.047619 165.952381,136.190476 164.52381,137.857143 C159.52381,143.571429 154.52381,149.285714 149.285714,154.761905 L143.333333,161.428571 C142.380952,162.619048 140.952381,163.095238 139.285714,163.095238 C138.095238,163.333333 136.666667,162.857143 135.714286,161.904762 Z" id="Shape"></path>
            </g>
            <g id="noun_company_4200630" transform="translate(0.000000, 363.000000)" fill="#000000">
                <path d="M46.4531025,1.28410515 C44.7012897,1.44387283 43.3689839,2.78771128 43.3741024,4.3897575 L43.3741024,64.4804751 L17.2449962,64.4804751 C15.3668169,64.4873067 13.8461127,65.8710753 13.8386052,67.5801294 L13.8386052,175.545251 L4.16719488,175.545251 C4.04922552,175.539686 3.9310185,175.539686 3.81304913,175.545251 C1.95435891,175.668468 0.545027563,177.121326 0.641395022,178.814859 C0.737762481,180.508393 2.30445926,181.82103 4.16719488,181.768906 L46.807119,181.768906 L83.3089475,181.768906 L153.033002,181.768906 L195.672926,181.768906 C197.533233,181.73285 199.02063,180.350254 199.02063,178.657078 C199.02063,176.963903 197.533233,175.581307 195.672926,175.545251 L186.001515,175.545251 L186.001515,67.5801294 C185.993965,65.8615767 184.456989,64.4739005 182.56837,64.4804751 L156.446114,64.4804751 L156.446114,4.3897575 C156.442204,2.67598285 154.916369,1.28759767 153.033002,1.28410515 L46.807119,1.28410515 C46.6891496,1.27853989 46.5709426,1.27853989 46.4529732,1.28410515 L46.4531025,1.28410515 Z M50.2135099,7.51375739 L149.599985,7.51375739 L149.599985,67.5801294 L149.599985,175.545251 L119.937693,175.545251 L119.937693,140.264 C119.935847,139.437654 119.57291,138.645902 118.928895,138.063297 C118.28488,137.480693 117.412669,137.155075 116.504554,137.15823 L83.3089475,137.15823 C81.4281552,137.165081 79.9063784,138.552558 79.9025565,140.264 L79.9025565,175.545251 L50.2135099,175.545251 L50.2135099,67.5801294 L50.2135099,7.51375739 Z M67.532659,21.9118897 C65.7807456,22.0716052 64.448351,23.4155277 64.4535297,25.0176598 L64.4535297,44.2658601 C64.4463045,45.984414 65.9713028,47.3829893 67.8599207,47.38986 L89.8212226,47.38986 C90.7293212,47.388149 91.5993912,47.0578783 92.2396213,46.4718574 C92.8798515,45.8858366 93.237674,45.0921826 93.2342053,44.2658601 L93.2342053,25.0176598 C93.2303672,23.3038849 91.7045896,21.9154471 89.8212226,21.9118897 L67.8599207,21.9118897 C67.750982,21.9071453 67.6418562,21.9071453 67.5329175,21.9118897 L67.532659,21.9118897 Z M109.665017,21.9118897 C107.913104,22.0716052 106.580709,23.4155277 106.585888,25.0176598 L106.585888,44.2658601 C106.578663,45.984414 108.103661,47.3829893 109.992279,47.38986 L131.953445,47.38986 C132.865036,47.3930328 133.740298,47.064917 134.384895,46.4783642 C135.029492,45.8918114 135.390078,45.095365 135.386591,44.2658601 L135.386591,25.0176598 C135.384745,24.1913126 135.021806,23.39956 134.37779,22.8169555 C133.733774,22.234351 132.861561,21.9087333 131.953445,21.9118897 L109.992279,21.9118897 C109.88334,21.9071453 109.774214,21.9071453 109.665276,21.9118897 L109.665017,21.9118897 Z M71.2930665,28.1416596 L86.3880768,28.1416596 L86.3880768,41.1662058 L71.2930665,41.1662058 L71.2930665,28.1416596 Z M113.425425,28.1416596 L128.547054,28.1416596 L128.547054,41.1662058 L113.425425,41.1662058 L113.425425,28.1416596 Z M67.8599207,60.0254645 C65.9713028,60.0323352 64.4463045,61.4309105 64.4535297,63.1494644 L64.4535297,82.3976647 C64.4610373,84.1067188 65.9817414,85.4904875 67.8599207,85.497319 L89.8212226,85.497319 C91.7019756,85.4937767 93.2266765,84.1090507 93.2342053,82.3976647 L93.2342053,63.1494644 C93.237674,62.3231419 92.8798515,61.5294879 92.2396213,60.9434671 C91.5993912,60.3574462 90.7293212,60.0271755 89.8212226,60.0254645 L67.8599207,60.0254645 Z M109.992279,60.0254645 C108.103661,60.0323352 106.578663,61.4309105 106.585888,63.1494644 L106.585888,82.3976647 C106.593395,84.1067188 108.1141,85.4904875 109.992279,85.497319 L131.953445,85.497319 C133.842064,85.5038936 135.37904,84.1162175 135.386591,82.3976647 L135.386591,63.1494644 C135.390078,62.3199595 135.029492,61.5235131 134.384895,60.9369603 C133.740298,60.3504075 132.865036,60.0222917 131.953445,60.0254645 L109.992279,60.0254645 Z M71.2930665,66.2491187 L86.3880768,66.2491187 L86.3880768,79.2737825 L71.2930665,79.2737825 L71.2930665,66.2491187 Z M113.425425,66.2491187 L128.547054,66.2491187 L128.547054,79.2737825 L113.425425,79.2737825 L113.425425,66.2491187 Z M20.678142,70.7041293 L43.3741024,70.7041293 L43.3741024,175.545251 L20.678142,175.545251 L20.678142,70.7041293 Z M156.446114,70.7041293 L179.161979,70.7041293 L179.161979,175.545251 L156.446114,175.545251 L156.446114,70.7041293 Z M67.532659,97.5799137 C65.7833118,97.7394015 64.4518129,99.079776 64.4535297,100.679568 L64.4535297,119.93389 C64.4463045,121.652444 65.9713028,123.051019 67.8599207,123.05789 L89.8212226,123.05789 C90.7293212,123.056179 91.5993912,122.725908 92.2396213,122.139887 C92.8798515,121.553867 93.237674,120.760212 93.2342053,119.93389 L93.2342053,100.679568 C93.2266765,98.968182 91.7019756,97.583456 89.8212226,97.5799137 L67.8599207,97.5799137 C67.750982,97.5751693 67.6418562,97.5751693 67.5329175,97.5799137 L67.532659,97.5799137 Z M109.665017,97.5799137 C107.91567,97.7394015 106.584171,99.079776 106.585888,100.679568 L106.585888,119.93389 C106.578663,121.652444 108.103661,123.051019 109.992279,123.05789 L131.953445,123.05789 C132.865036,123.061063 133.740298,122.732947 134.384895,122.146394 C135.029492,121.559841 135.390078,120.763395 135.386591,119.93389 L135.386591,100.679568 C135.37904,98.9610152 133.842064,97.5733391 131.953445,97.5799137 L109.992279,97.5799137 C109.88334,97.5751693 109.774214,97.5751693 109.665276,97.5799137 L109.665017,97.5799137 Z M71.2930665,103.785338 L86.3880768,103.785338 L86.3880768,116.82812 L71.2930665,116.82812 L71.2930665,103.785338 Z M113.425425,103.785338 L128.547054,103.785338 L128.547054,116.82812 L113.425425,116.82812 L113.425425,103.785338 Z M86.7420933,143.387882 L113.098163,143.387882 L113.098163,175.545251 L86.7420933,175.545251 L86.7420933,143.387882 Z" id="Shape"></path>
            </g>
            <g id="noun_two-way-direction_581845" transform="translate(532.591143, 254.591143) rotate(45.000000) translate(-532.591143, -254.591143) translate(450.591143, 190.091143)" fill="#000000">
                <path d="M0.389830508,30.5084746 C0.389830508,28.6363229 1.90750932,27.1186441 3.77966102,27.1186441 L151.542373,27.1186441 L130.186441,5.79661017 C129.034655,4.45166008 129.112094,2.44679942 130.364192,1.19470095 C131.616291,-0.0573975243 133.621152,-0.134836596 134.966102,1.01694915 L162.084746,28.1355932 C163.399063,29.4577541 163.399063,31.5930934 162.084746,32.9152542 L134.966102,60.0338983 C133.621152,61.1856841 131.616291,61.108245 130.364192,59.8561465 C129.112094,58.604048 129.034655,56.5991874 130.186441,55.2542373 L151.542373,33.8983051 L3.77966102,33.8983051 C1.90750932,33.8983051 0.389830508,32.3806263 0.389830508,30.5084746 Z M159.711864,94.9152542 L11.9491525,94.9152542 L33.2711864,73.5932203 C34.4229722,72.2482702 34.3455331,70.2434096 33.0934346,68.9913111 C31.8413362,67.7392126 29.8364755,67.6617736 28.4915254,68.8135593 L1.37288136,95.9322034 C0.0585640857,97.2543643 0.0585640857,99.3897035 1.37288136,100.711864 L28.4915254,127.830508 C29.8364755,128.982294 31.8413362,128.904855 33.0934346,127.652757 C34.3455331,126.400658 34.4229722,124.395798 33.2711864,123.050847 L11.9491525,101.694915 L159.711864,101.694915 C161.584016,101.694915 163.101695,100.177236 163.101695,98.3050847 C163.101695,96.4329331 161.584016,94.9152542 159.711864,94.9152542 Z" id="Shape"></path>
            </g>
            <g id="noun_two-way-direction_581845" transform="translate(181.591143, 254.591143) scale(-1, 1) rotate(45.000000) translate(-181.591143, -254.591143) translate(99.591143, 190.091143)" fill="#000000">
                <path d="M0.389830508,30.5084746 C0.389830508,28.6363229 1.90750932,27.1186441 3.77966102,27.1186441 L151.542373,27.1186441 L130.186441,5.79661017 C129.034655,4.45166008 129.112094,2.44679942 130.364192,1.19470095 C131.616291,-0.0573975243 133.621152,-0.134836596 134.966102,1.01694915 L162.084746,28.1355932 C163.399063,29.4577541 163.399063,31.5930934 162.084746,32.9152542 L134.966102,60.0338983 C133.621152,61.1856841 131.616291,61.108245 130.364192,59.8561465 C129.112094,58.604048 129.034655,56.5991874 130.186441,55.2542373 L151.542373,33.8983051 L3.77966102,33.8983051 C1.90750932,33.8983051 0.389830508,32.3806263 0.389830508,30.5084746 Z M159.711864,94.9152542 L11.9491525,94.9152542 L33.2711864,73.5932203 C34.4229722,72.2482702 34.3455331,70.2434096 33.0934346,68.9913111 C31.8413362,67.7392126 29.8364755,67.6617736 28.4915254,68.8135593 L1.37288136,95.9322034 C0.0585640857,97.2543643 0.0585640857,99.3897035 1.37288136,100.711864 L28.4915254,127.830508 C29.8364755,128.982294 31.8413362,128.904855 33.0934346,127.652757 C34.3455331,126.400658 34.4229722,124.395798 33.2711864,123.050847 L11.9491525,101.694915 L159.711864,101.694915 C161.584016,101.694915 163.101695,100.177236 163.101695,98.3050847 C163.101695,96.4329331 161.584016,94.9152542 159.711864,94.9152542 Z" id="Shape"></path>
            </g>
            <g id="noun_two-way-direction_581845" transform="translate(285.000000, 416.000000)" fill="#DF2525">
                <path d="M0.389830508,30.5084746 C0.389830508,28.6363229 1.90750932,27.1186441 3.77966102,27.1186441 L151.542373,27.1186441 L130.186441,5.79661017 C129.034655,4.45166008 129.112094,2.44679942 130.364192,1.19470095 C131.616291,-0.0573975243 133.621152,-0.134836596 134.966102,1.01694915 L162.084746,28.1355932 C163.399063,29.4577541 163.399063,31.5930934 162.084746,32.9152542 L134.966102,60.0338983 C133.621152,61.1856841 131.616291,61.108245 130.364192,59.8561465 C129.112094,58.604048 129.034655,56.5991874 130.186441,55.2542373 L151.542373,33.8983051 L3.77966102,33.8983051 C1.90750932,33.8983051 0.389830508,32.3806263 0.389830508,30.5084746 Z M159.711864,94.9152542 L11.9491525,94.9152542 L33.2711864,73.5932203 C34.4229722,72.2482702 34.3455331,70.2434096 33.0934346,68.9913111 C31.8413362,67.7392126 29.8364755,67.6617736 28.4915254,68.8135593 L1.37288136,95.9322034 C0.0585640857,97.2543643 0.0585640857,99.3897035 1.37288136,100.711864 L28.4915254,127.830508 C29.8364755,128.982294 31.8413362,128.904855 33.0934346,127.652757 C34.3455331,126.400658 34.4229722,124.395798 33.2711864,123.050847 L11.9491525,101.694915 L159.711864,101.694915 C161.584016,101.694915 163.101695,100.177236 163.101695,98.3050847 C163.101695,96.4329331 161.584016,94.9152542 159.711864,94.9152542 Z" id="Shape"></path>
            </g>
        </g>
    </g>
</svg>