<?xml version="1.0" encoding="UTF-8"?>
<svg width="94px" height="86px" viewBox="0 0 94 86" version="1.1" xmlns="http://www.w3.org/2000/svg" xmlns:xlink="http://www.w3.org/1999/xlink">
    <!-- Generator: Sketch 43.1 (39012) - http://www.bohemiancoding.com/sketch -->
    <title>Group 7</title>
    <desc>Created with Sketch.</desc>
    <defs></defs>
    <g id="Page-1" stroke="none" stroke-width="1" fill="none" fill-rule="evenodd">
        <g id="Group-7" fill-rule="nonzero" fill="#000000">
            <g id="Group">
                <path d="M92,29.38 L92,29.38 L92,30.88 L92,30.88 L92,32.38 L92,32.38 C92.8284271,32.38 93.5,31.7084271 93.5,30.88 C93.5,30.0515729 92.8284271,29.38 92,29.38 Z" id="Shape"></path>
                <path d="M92,32.38 L92,32.38 L92,30.88 L92,30.88 L92,29.38 L92,29.38 C92.8284271,29.38 93.5,30.0515729 93.5,30.88 C93.4959373,18.722274 86.1665039,7.76487467 74.9311302,3.11980236 C63.6957566,-1.52526995 50.7684447,1.05732584 42.1802262,9.66272074 C33.5920077,18.2681156 31.0352459,31.2005618 35.7027572,42.4266322 C40.3702685,53.6527025 51.3422902,60.9602285 63.5,60.94 C80.0736717,60.8959246 93.4890388,47.4537267 93.5,30.88 C93.5,31.7084271 92.8284271,32.38 92,32.38 Z M87.39,29.38 C86.5615729,29.38 85.89,30.0515729 85.89,30.88 C85.89,31.7084271 86.5615729,32.38 87.39,32.38 L90.46,32.38 C89.6812882,46.1142479 78.7326937,57.084344 65,57.89 L65,54.83 C65,54.0015729 64.3284271,53.33 63.5,53.33 C62.6715729,53.33 62,54.0015729 62,54.83 L62,57.89 C48.2262938,57.1377557 37.2192131,46.1522068 36.44,32.38 L39.5,32.38 C40.3284271,32.38 41,31.7084271 41,30.88 C41,30.0515729 40.3284271,29.38 39.5,29.38 L36.44,29.38 C37.2236618,15.6097881 48.22828,4.62669696 62,3.87 L62,6.94 C62,7.76842712 62.6715729,8.44 63.5,8.44 C64.3284271,8.44 65,7.76842712 65,6.94 L65,3.87 C78.728727,4.68447554 89.6724609,15.6497014 90.46,29.38 L87.39,29.38 Z" id="Shape"></path>
                <path d="M74.45,36.15 L73.61,35.62 L65.4,30.35 L73.3,14.67 L74.59,12.11 C74.8311543,11.6312641 74.7985875,11.0602396 74.5045672,10.6120259 C74.2105469,10.1638123 73.6997417,9.90650372 73.1645672,9.93702594 C72.6293926,9.96754816 72.1511543,10.2812641 71.91,10.76 L62.11,30.21 C61.7628074,30.8968742 61.9917973,31.7350637 62.64,32.15 L72.83,38.68 C73.0683326,38.8346329 73.345906,38.9179049 73.63,38.92 C74.2943721,38.9146793 74.8772083,38.4757313 75.065798,37.8386658 C75.2543878,37.2016004 75.0044158,36.5161171 74.45,36.15 L74.45,36.15 Z" id="Shape"></path>
                <path d="M61.29,71.08 L42.65,71.08 C43.677916,68.7694724 43.1814736,66.064854 41.4,64.27 L29.25,52.12 C26.6614695,49.5428049 23.1526902,48.1033057 19.5,48.12 L2,48.12 C1.17157288,48.12 0.5,48.7915729 0.5,49.62 C0.5,50.4484271 1.17157288,51.12 2,51.12 L19.5,51.12 C22.3607057,51.1102842 25.1057252,52.2486387 27.12,54.28 L39.28,66.39 C40.4925562,67.6138493 40.4925562,69.5861507 39.28,70.81 C39.1495599,70.9346583 39.0090862,71.0483751 38.86,71.15 C38.6508807,71.2183171 38.4572154,71.3270415 38.29,71.47 C37.1163642,71.9751435 35.753347,71.7136344 34.85,70.81 L26.37,62.33 C25.7789805,61.7792823 24.8579806,61.7955322 24.2867564,62.3667564 C23.7155322,62.9379806 23.6992823,63.8589805 24.25,64.45 L32.73,72.93 C34.5626144,74.7993412 37.3956393,75.2647667 39.73,74.08 L61.29,74.08 C63.5239918,74.08 65.335,75.8910082 65.335,78.125 C65.335,80.3589918 63.5239918,82.17 61.29,82.17 L36.08,82.17 C31.9217166,82.1819909 27.9316381,80.5290613 25,77.58 L13.79,66.37 C13.5089653,66.088615 13.1276907,65.9303501 12.73,65.93 L2,65.93 C1.17157288,65.93 0.5,66.6015729 0.5,67.43 C0.5,68.2584271 1.17157288,68.93 2,68.93 L12.11,68.93 L22.88,79.7 C26.3705464,83.2165456 31.1252323,85.1868586 36.08,85.17 L61.29,85.17 C65.1808461,85.17 68.335,82.0158461 68.335,78.125 C68.335,74.2341539 65.1808461,71.08 61.29,71.08 L61.29,71.08 Z" id="Shape"></path>
            </g>
        </g>
    </g>
</svg>