<?xml version="1.0" encoding="UTF-8"?>
<svg width="1363px" height="281px" viewBox="0 0 1363 281" version="1.1" xmlns="http://www.w3.org/2000/svg" xmlns:xlink="http://www.w3.org/1999/xlink">
    <!-- Generator: Sketch 43.1 (39012) - http://www.bohemiancoding.com/sketch -->
    <title>Group 9</title>
    <desc>Created with Sketch.</desc>
    <defs></defs>
    <g id="Page-1" stroke="none" stroke-width="1" fill="none" fill-rule="evenodd">
        <g id="Group-9" transform="translate(0.000000, -11.000000)">
            <text id="Decentralized-Goverm" font-family="Arial-BoldMT, Arial" font-size="130" font-weight="bold" letter-spacing="20.2222214" fill="#679DDC">
                <tspan x="283" y="118">Decentralized </tspan>
                <tspan x="283" y="264">Govermen</tspan>
                <tspan x="1087.79535" y="264" letter-spacing="29.2098751">t</tspan>
            </text>
            <g id="Group-8" transform="translate(1182.000000, 132.000000)" fill-rule="nonzero" fill="#446EA0">
                <polygon id="Shape" points="160.994382 98.3604781 141.280784 106.212864 141.280784 130.218728 160.994382 122.366343"></polygon>
                <path d="M141.280784,75.8316098 L140.097968,76.2990137 L140.097968,76.2990137 C139.68547,76.4475224 139.233776,76.4475224 138.821278,76.2990137 L138.821278,76.2990137 L137.638462,75.8316098 L137.638462,88.9189192 L121.097815,95.4999662 L139.515947,102.828859 L157.93408,95.4999662 L141.393433,88.9189192 L141.393433,75.8316098 L141.280784,75.8316098 Z" id="Shape"></path>
                <polygon id="Shape" points="20.1829691 106.194168 0.469371375 98.341782 0.469371375 122.347647 20.1829691 130.200032"></polygon>
                <path d="M23.9379401,75.8316098 L22.7551242,76.2990137 L22.7551242,76.2990137 C22.3426264,76.4475224 21.8909319,76.4475224 21.4784341,76.2990137 L21.4784341,76.2990137 L20.2956182,75.8316098 L20.2956182,88.9189192 L3.64232187,95.5747508 L22.0604546,102.828859 L40.4785874,95.4999662 L23.9379401,88.9937038 L23.9379401,75.9063944 L23.9379401,75.8316098 Z" id="Shape"></path>
                <polygon id="Shape" points="82.609362 18.5652832 82.609362 42.5711478 100.257726 35.5413931 103.543325 38.2710319 114.057244 46.9834407 117.812215 50.1056988 117.812215 63.9408544 137.525813 71.7932401 137.525813 66.1843932 137.525813 47.7873754 127.669014 43.8611826 117.812215 39.9349898 117.812215 45.2446982 114.057244 42.1224401 106.077931 35.5040007 102.32296 32.3817427 102.32296 10.7128975"></polygon>
                <polygon id="Shape" points="62.3137437 7.94586641 80.7318765 15.2747597 99.1500092 7.94586641 80.7318765 0.616973157"></polygon>
                <polygon id="Shape" points="23.9379401 47.7873754 23.9379401 66.1843932 23.9379401 71.7932401 43.6515379 63.9408544 43.6515379 50.1056988 47.4065088 46.9834407 57.9204276 38.2710319 61.2060273 35.5413931 78.854391 42.5711478 78.854391 18.5652832 59.1407932 10.7128975 59.1407932 32.3817427 55.3858222 35.5040007 47.4065088 42.1224401 43.6515379 45.2446982 43.6515379 39.9349898"></polygon>
                <polygon id="Shape" points="20.1829691 66.1843932 20.1829691 47.7873754 0.469371375 39.9349898 0.469371375 63.9408544 20.1829691 71.7932401"></polygon>
                <polygon id="Shape" points="40.4785874 37.1679587 22.0604546 29.8390654 3.64232187 37.1679587 22.0604546 44.4968519"></polygon>
                <polygon id="Shape" points="160.994382 39.9349898 151.137583 43.8611826 141.280784 47.7873754 141.280784 66.1843932 141.280784 71.7932401 160.994382 63.9408544"></polygon>
                <polygon id="Shape" points="120.985166 37.1679587 139.403298 44.4968519 157.821431 37.1679587 139.403298 29.8390654"></polygon>
                <path d="M82.7971105,82.4500491 C82.0196415,83.2512851 81.087161,83.8872932 80.0559817,84.3196648 L80.0559817,84.3196648 C80.0741089,84.6369286 80.1308485,84.9508277 80.2249554,85.2544726 L80.2249554,85.5162188 C80.2995013,85.7360881 80.3937553,85.9488349 80.5065782,86.1518881 L80.656777,86.3949381 C80.8185316,86.6732209 81.0140022,86.9306629 81.2387975,87.1614805 L82.3277391,88.2271614 C83.6648082,87.6042647 84.8842079,86.7567927 85.9325113,85.7218765 C87.2514514,84.4084533 88.2585996,82.8178247 88.8801635,81.0665336 L88.8801635,81.0665336 C89.8086151,78.3959558 89.8086151,75.4921065 88.8801635,72.8215287 C88.7487395,72.4476055 88.5985407,72.0736824 88.4483419,71.6997593 C87.8260709,70.3035536 86.947356,69.0353919 85.8574119,67.960528 L75.09942,56.9297958 C72.7523393,54.5403058 69.5379417,53.1925484 66.1813638,53.1905646 L66.1813638,53.1905646 C60.9963791,53.0913712 56.2785412,56.1617397 54.2883652,60.9305271 C52.2981892,65.6993146 53.4410812,71.1951016 57.1694334,74.7846251 L68.0776242,85.665788 C68.0869862,85.5226024 68.0869862,85.378962 68.0776242,85.2357764 L68.0776242,84.469234 L68.0776242,83.7213878 L68.0776242,82.9735415 L68.0776242,82.1883029 C68.0776242,81.9265568 68.0776242,81.720899 68.1714985,81.477849 C68.2653727,81.234799 68.1714985,80.9356605 68.3216973,80.6739143 C68.4718961,80.4121681 68.3216973,80.2252065 68.4718961,80.0008527 L68.4718961,79.7951949 L60.2297348,71.6062785 C57.0671697,68.4569699 57.0671698,63.3509318 60.2297349,60.2016233 C63.3923,57.0523147 68.5198312,57.0523147 71.6823964,60.2016232 L82.7971105,71.0453938 C84.3162339,72.5537338 85.1700422,74.6021339 85.1700422,76.7383734 C85.1700422,78.8746129 84.3162339,80.923013 82.7971105,82.431353 L82.7971105,82.4500491 Z" id="Shape"></path>
                <path d="M107.992966,94.9764738 C107.990974,91.6339657 106.637543,88.4330419 104.237995,86.0957996 L93.3298042,75.2146367 C93.5027785,77.1870596 93.3248171,79.1744046 92.8041082,81.0852297 L101.04627,89.2741462 C104.208835,92.4234548 104.208834,97.5294927 101.046269,100.678801 C97.8837043,103.82811 92.7561732,103.82811 89.593608,100.678801 L78.6666424,89.7415501 C77.147519,88.2332101 76.2937107,86.18481 76.2937107,84.0485705 C76.2937107,81.912331 77.147519,79.8639309 78.6666424,78.3555909 C79.4441114,77.5543549 80.3765919,76.9183469 81.4077712,76.4859753 C81.3533096,75.4169787 80.9055249,74.4053669 80.149856,73.6441595 L79.0609144,72.5784786 C72.7976861,75.4671571 70.0349883,82.836817 72.8652122,89.1058808 C73.4874832,90.5020864 74.3661981,91.7702482 75.4561422,92.845112 L86.4582072,103.782363 C88.8052878,106.171853 92.0196854,107.519611 95.3762633,107.521595 L95.3762633,107.521595 C102.339988,107.511298 107.982626,101.892313 107.992966,94.9577777 L107.992966,94.9764738 Z" id="Shape"></path>
                <polygon id="Shape" points="120.816192 123.562897 137.525813 130.218728 137.525813 106.212864 117.812215 98.3604781 117.812215 121.188485 114.151118 124.217262 106.077931 130.929182 106.077931 135.808879 117.530592 126.292536"></polygon>
                <polygon id="Shape" points="43.9143858 126.273839 55.3858222 135.808879 55.3858222 130.929182 47.2938597 124.217262 43.6515379 121.188485 43.6515379 98.341782 23.9379401 106.194168 23.9379401 130.200032 40.6287862 123.562897"></polygon>
                <polygon id="Shape" points="102.32296 127.563874 82.609362 135.41626 82.609362 159.422124 102.32296 151.569739"></polygon>
                <polygon id="Shape" points="78.854391 135.41626 59.1407932 127.563874 59.1407932 151.569739 78.854391 159.422124"></polygon>
                <polygon id="Shape" points="99.1500092 124.796843 80.7318765 117.46795 62.3137437 124.796843 80.7318765 132.125736"></polygon>
            </g>
            <g id="Group-2" transform="translate(0.000000, 11.000000)" fill-rule="nonzero" fill="#679DDC">
                <path d="M260.553642,235.927102 L6.53515131,235.927102 C3.40964416,235.927102 0.852411041,238.474211 0.852411041,241.587344 L0.852411041,263.662292 C0.852411041,266.775425 3.40964416,269.322535 6.53515131,269.322535 L260.553642,269.322535 C263.679149,269.322535 266.236382,266.775425 266.236382,263.662292 L266.236382,241.587344 C266.236382,238.474211 263.679149,235.927102 260.553642,235.927102 Z" id="Shape"></path>
                <rect id="Rectangle-path" x="32.3916196" y="113.665855" width="45.4619222" height="106.695579"></rect>
                <rect id="Rectangle-path" x="110.813435" y="113.665855" width="45.4619222" height="106.695579"></rect>
                <rect id="Rectangle-path" x="189.519388" y="113.665855" width="45.4619222" height="106.695579"></rect>
                <path d="M6.53515131,98.3831992 L260.553642,98.3831992 C263.679149,98.3831992 266.236382,95.8360899 266.236382,92.7229563 L266.236382,68.3839119 C266.236382,66.1198147 265.099834,64.1387297 263.110875,63.2896933 L136.10163,1.02702141 C134.396807,0.177984975 132.691985,0.177984975 130.987163,1.02702141 L3.97791819,63.2896933 C1.9889591,64.1387297 0.852411041,66.1198147 0.852411041,68.3839119 L0.852411041,92.7229563 C0.852411041,95.8360899 3.40964416,98.3831992 6.53515131,98.3831992 Z M133.544396,33.8564302 C143.773329,33.8564302 152.013302,42.0637824 152.013302,52.2522196 C152.013302,62.4406568 143.773329,70.648009 133.544396,70.648009 C123.315464,70.648009 115.075491,62.4406568 115.075491,52.2522196 C115.075491,42.0637824 123.315464,33.8564302 133.544396,33.8564302 Z" id="Shape"></path>
            </g>
        </g>
    </g>
</svg>