<?xml version="1.0" encoding="UTF-8"?>
<svg width="528px" height="287px" viewBox="0 0 528 287" version="1.1" xmlns="http://www.w3.org/2000/svg" xmlns:xlink="http://www.w3.org/1999/xlink">
    <!-- Generator: Sketch 43.1 (39012) - http://www.bohemiancoding.com/sketch -->
    <title>Group 2</title>
    <desc>Created with Sketch.</desc>
    <defs></defs>
    <g id="Page-1" stroke="none" stroke-width="1" fill="none" fill-rule="evenodd">
        <g id="Group-2" fill-rule="nonzero" fill="#000000">
            <polygon id="Shape" points="527.991834 197.237446 499.339773 208.672483 499.339773 243.631023 527.991834 232.195987"></polygon>
            <path d="M499.339773,164.429782 L497.620649,165.110439 L497.620649,165.110439 C497.021118,165.326705 496.364618,165.326705 495.765087,165.110439 L495.765087,165.110439 L494.045963,164.429782 L494.045963,183.488176 L470.005519,193.071826 L496.774731,203.744527 L523.543943,193.071826 L499.503499,183.488176 L499.503499,164.429782 L499.339773,164.429782 Z" id="Shape"></path>
            <polygon id="Shape" points="323.334253 208.645257 294.682192 197.21022 294.682192 232.16876 323.334253 243.603797"></polygon>
            <path d="M328.791789,164.429782 L327.072665,165.110439 L327.072665,165.110439 C326.473134,165.326705 325.816634,165.326705 325.217103,165.110439 L325.217103,165.110439 L323.497979,164.429782 L323.497979,183.488176 L299.293809,193.180731 L326.063021,203.744527 L352.832233,193.071826 L328.791789,183.597081 L328.791789,164.538687 L328.791789,164.429782 Z" id="Shape"></path>
            <polygon id="Shape" points="414.065781 81.0356936 414.065781 115.994234 439.716198 105.757154 444.491541 109.73219 459.77264 122.419636 465.230176 126.966424 465.230176 147.113869 493.882237 158.548906 493.882237 150.381023 493.882237 123.590365 479.556207 117.872847 465.230176 112.155329 465.230176 119.887592 459.77264 115.340803 448.175378 105.702701 442.717842 101.155913 442.717842 69.600657"></polygon>
            <polygon id="Shape" points="384.567801 65.571168 411.337013 76.2438688 438.106225 65.571168 411.337013 54.8984672"></polygon>
            <polygon id="Shape" points="328.791789 123.590365 328.791789 150.381023 328.791789 158.548906 357.44385 147.113869 357.44385 126.966424 362.901386 122.419636 378.182485 109.73219 382.957828 105.757154 408.608245 115.994234 408.608245 81.0356936 379.956184 69.600657 379.956184 101.155913 374.498648 105.702701 362.901386 115.340803 357.44385 119.887592 357.44385 112.155329"></polygon>
            <polygon id="Shape" points="323.334253 150.381023 323.334253 123.590365 294.682192 112.155329 294.682192 147.113869 323.334253 158.548906"></polygon>
            <polygon id="Shape" points="352.832233 108.12584 326.063021 97.453139 299.293809 108.12584 326.063021 118.798541"></polygon>
            <polygon id="Shape" points="527.991834 112.155329 513.665803 117.872847 499.339773 123.590365 499.339773 150.381023 499.339773 158.548906 527.991834 147.113869"></polygon>
            <polygon id="Shape" points="469.841793 108.12584 496.611005 118.798541 523.380217 108.12584 496.611005 97.453139"></polygon>
            <path d="M414.338658,174.067884 C413.208671,175.234684 411.853389,176.160871 410.354657,176.790512 L410.354657,176.790512 C410.381003,177.252527 410.463469,177.709643 410.600246,178.151826 L410.600246,178.532994 C410.708592,178.853178 410.845582,179.162991 411.009561,179.458687 L411.227862,179.812629 C411.462959,180.217878 411.747059,180.592778 412.07378,180.928906 L413.656466,182.480804 C415.599783,181.57371 417.372079,180.339579 418.8957,178.832483 C420.812669,176.91981 422.276474,174.603457 423.179865,172.05314 L423.179865,172.05314 C424.529292,168.164111 424.529292,163.93538 423.179865,160.046351 C422.988851,159.501826 422.77055,158.9573 422.552248,158.412774 C421.64783,156.37955 420.370691,154.532789 418.786549,152.967519 L403.15071,136.904015 C399.739425,133.42432 395.067568,131.461649 390.189063,131.45876 L390.189063,131.45876 C382.653122,131.314309 375.796141,135.785533 372.903587,142.73008 C370.011033,149.674627 371.67213,157.677867 377.090978,162.90511 L392.945118,178.750804 C392.958725,178.54229 392.958725,178.333113 392.945118,178.124599 L392.945118,177.008322 L392.945118,175.919271 L392.945118,174.83022 L392.945118,173.686716 C392.945118,173.305548 392.945118,173.006059 393.081557,172.652118 C393.217995,172.298176 393.081557,171.862556 393.299858,171.481388 C393.51816,171.10022 393.299858,170.827957 393.51816,170.501242 L393.51816,170.201753 L381.538869,158.276643 C376.942346,153.690462 376.942346,146.254794 381.538869,141.668614 C386.135393,137.082433 393.587829,137.082433 398.184352,141.668614 L414.338658,157.459855 C416.546576,159.656375 417.787515,162.639357 417.787515,165.750256 C417.787515,168.861155 416.546576,171.844138 414.338658,174.040658 L414.338658,174.067884 Z" id="Shape"></path>
            <path d="M450.958721,192.30949 C450.955825,187.441963 448.988727,182.780617 445.501185,179.377008 L429.647045,163.531315 C429.898448,166.403656 429.639796,169.297727 428.88299,172.080366 L440.86228,184.005475 C445.458803,188.591656 445.458803,196.027324 440.86228,200.613504 C436.265757,205.199685 428.81332,205.199685 424.216797,200.613505 L408.335368,184.686132 C406.12745,182.489612 404.886511,179.50663 404.886511,176.395731 C404.886511,173.284832 406.12745,170.301849 408.335368,168.105329 C409.465355,166.938529 410.820637,166.012343 412.319369,165.382702 C412.240214,163.825975 411.589396,162.352816 410.491095,161.244307 L408.90841,159.692409 C399.805333,163.899047 395.789983,174.631115 399.903476,183.760439 C400.807895,185.793663 402.085033,187.640424 403.669176,189.205694 L419.659755,205.133067 C423.071039,208.612762 427.742897,210.575433 432.621401,210.578322 L432.621401,210.578322 C442.742592,210.563328 450.943693,202.380681 450.958721,192.282264 L450.958721,192.30949 Z" id="Shape"></path>
            <polygon id="Shape" points="469.596204 233.938468 493.882237 243.631023 493.882237 208.672483 465.230176 197.237446 465.230176 230.480731 459.909079 234.891388 448.175378 244.665622 448.175378 251.77168 464.820861 237.913505"></polygon>
            <polygon id="Shape" points="357.825878 237.886279 374.498648 251.77168 374.498648 244.665622 362.737659 234.891388 357.44385 230.480731 357.44385 197.21022 328.791789 208.645257 328.791789 243.603797 353.050534 233.938468"></polygon>
            <polygon id="Shape" points="442.717842 239.764892 414.065781 251.199928 414.065781 286.158469 442.717842 274.723432"></polygon>
            <polygon id="Shape" points="408.608245 251.199928 379.956184 239.764892 379.956184 274.723432 408.608245 286.158469"></polygon>
            <polygon id="Shape" points="438.106225 235.735403 411.337013 225.062702 384.567801 235.735403 411.337013 246.408104"></polygon>
            <path d="M260.553642,235.927102 L6.53515131,235.927102 C3.40964416,235.927102 0.852411041,238.474211 0.852411041,241.587344 L0.852411041,263.662292 C0.852411041,266.775425 3.40964416,269.322535 6.53515131,269.322535 L260.553642,269.322535 C263.679149,269.322535 266.236382,266.775425 266.236382,263.662292 L266.236382,241.587344 C266.236382,238.474211 263.679149,235.927102 260.553642,235.927102 Z" id="Shape"></path>
            <rect id="Rectangle-path" x="32.3916196" y="113.665855" width="45.4619222" height="106.695579"></rect>
            <rect id="Rectangle-path" x="110.813435" y="113.665855" width="45.4619222" height="106.695579"></rect>
            <rect id="Rectangle-path" x="189.519388" y="113.665855" width="45.4619222" height="106.695579"></rect>
            <path d="M6.53515131,98.3831992 L260.553642,98.3831992 C263.679149,98.3831992 266.236382,95.8360899 266.236382,92.7229563 L266.236382,68.3839119 C266.236382,66.1198147 265.099834,64.1387297 263.110875,63.2896933 L136.10163,1.02702141 C134.396807,0.177984975 132.691985,0.177984975 130.987163,1.02702141 L3.97791819,63.2896933 C1.9889591,64.1387297 0.852411041,66.1198147 0.852411041,68.3839119 L0.852411041,92.7229563 C0.852411041,95.8360899 3.40964416,98.3831992 6.53515131,98.3831992 Z M133.544396,33.8564302 C143.773329,33.8564302 152.013302,42.0637824 152.013302,52.2522196 C152.013302,62.4406568 143.773329,70.648009 133.544396,70.648009 C123.315464,70.648009 115.075491,62.4406568 115.075491,52.2522196 C115.075491,42.0637824 123.315464,33.8564302 133.544396,33.8564302 Z" id="Shape"></path>
        </g>
    </g>
</svg>