<?xml version="1.0" encoding="UTF-8"?>
<svg width="95px" height="95px" viewBox="0 0 95 95" version="1.1" xmlns="http://www.w3.org/2000/svg" xmlns:xlink="http://www.w3.org/1999/xlink">
    <!-- Generator: Sketch 43.1 (39012) - http://www.bohemiancoding.com/sketch -->
    <title>Group 3</title>
    <desc>Created with Sketch.</desc>
    <defs></defs>
    <g id="Page-1" stroke="none" stroke-width="1" fill="none" fill-rule="evenodd">
        <g id="Group-3" fill-rule="nonzero" fill="#000000">
            <path d="M47.4460721,13.3467578 C44.4115308,13.3056054 41.5782698,13.5927149 38.8542753,14.2033007 C26.9480614,16.8676757 20.1907915,25.5670899 15.636104,32.8491406 C15.0610171,33.7669335 15.3408928,34.976621 16.2591147,35.5498828 C16.5830803,35.7518163 16.943468,35.8475196 17.2981049,35.8475196 C17.9517869,35.8475196 18.5920502,35.5211719 18.9639396,34.9258986 C25.2151332,24.9383205 31.4203198,19.8842384 39.7130716,18.0275978 C42.136104,17.4859181 44.6377317,17.2246486 47.4096499,17.266758 C57.7957176,17.3471486 66.4392723,21.8681643 73.8387226,31.0891603 C74.5134911,31.9313478 75.7480109,32.0729884 76.5972222,31.3925393 C77.4445167,30.7159183 77.5806207,29.4823049 76.9020182,28.6372464 C68.7185329,18.4381641 59.0800782,13.4367188 47.4460721,13.3467578 Z" id="Shape"></path>
            <path d="M23.5358796,78.4507226 C34.9590205,70.2891601 42.5118273,62.7324413 48.0211588,53.9478516 C48.6422527,52.9582813 49.1272425,51.94 49.5547236,51.0413476 C49.7214987,50.6891601 49.8806061,50.3551562 50.0358796,50.0517774 C50.5266204,49.0870899 50.1432292,47.9070703 49.1770833,47.4161132 C48.2071036,46.9213281 47.0281756,47.3089257 46.535518,48.2736132 C46.3668259,48.6066601 46.1923828,48.972246 46.0083551,49.3588866 C45.6077112,50.200117 45.1936487,51.0710156 44.6933232,51.8682224 C39.4696181,60.1982224 32.2388599,67.413281 21.2508681,75.2618944 C20.3690682,75.8925779 20.1658709,77.116621 20.7965495,77.9970897 C21.1799407,78.5320701 21.7837819,78.8163085 22.3952908,78.8163085 C22.7901838,78.8163085 23.1889106,78.6976368 23.5358796,78.4507226 Z" id="Shape"></path>
            <path d="M40.2191478,86.6065429 L40.9782625,85.8571875 C41.7316263,85.1049609 42.442817,84.3948437 43.2076823,83.8100976 C43.9476273,83.2435351 44.3501882,83.1717578 44.4307003,83.1918554 C44.5265481,83.2119531 44.881185,83.453125 45.3546731,84.3144531 C45.5885417,84.7403321 45.7687356,85.1949219 45.9546804,85.6485547 C46.192383,86.2333007 46.4358364,86.8170899 46.7367984,87.3692969 C47.0933522,88.0219922 47.7662039,88.3914063 48.462059,88.3914063 C48.7783567,88.3914063 49.1004053,88.3148438 49.3994505,88.1521486 C50.3521777,87.6343946 50.7029806,86.4438478 50.1834856,85.4935158 C49.9534509,85.070508 49.773257,84.6187891 49.5892292,84.1699415 C49.3476927,83.5775391 49.1023223,82.988008 48.7975264,82.4300587 C47.8256297,80.6595509 46.6601204,79.6546681 45.237739,79.3560743 C43.8287764,79.0593946 42.3814746,79.499629 40.8172385,80.6997462 C39.8491756,81.4404884 39.0114658,82.2759766 38.2025103,83.0846681 L37.4817349,83.7986134 C36.7034507,84.5537111 36.688115,85.7949806 37.4433957,86.5701759 C38.2005931,87.3444141 39.4427806,87.3616406 40.2191478,86.6065429 Z" id="Shape"></path>
            <path d="M56.7912327,65.932754 C55.7752461,65.5470705 54.644242,66.055254 54.2570169,67.065879 C52.294054,72.2060938 53.6320892,76.7548634 58.3458841,80.9734571 C58.7196905,81.309375 59.1874277,81.4739844 59.6551651,81.4739844 C60.1938298,81.4739844 60.7286604,81.2538672 61.1178025,80.8222462 C61.840495,80.0164259 61.7734016,78.7770705 60.9644461,78.0545118 C57.4640844,74.9202344 56.5554471,72.0520118 57.9260707,68.4631446 C58.3113787,67.4515625 57.8033855,66.3184375 56.7912327,65.932754 Z" id="Shape"></path>
            <path d="M72.8189019,14.2865625 C64.0066551,7.57873043 53.7375217,4.76984365 42.2492042,5.94986322 C32.8618705,6.91263658 25.0636936,10.7465038 19.071289,17.3452342 C18.3447626,18.1472264 18.4041882,19.3875389 19.2073928,20.1139257 C19.5831163,20.4546288 20.0546873,20.6221092 20.5262585,20.6221092 C21.0610892,20.6221092 21.594003,20.4048632 21.9812281,19.9789842 C27.302698,14.1181248 34.2554975,10.7101366 42.6517648,9.84880851 C53.0895902,8.78076158 62.4462526,11.3188085 70.4361253,17.4036132 C70.4399592,17.4055274 70.5971497,17.5241991 70.5990666,17.5261132 C70.8271843,17.6983788 71.0668039,17.8629882 71.2546656,18.0735351 C71.973524,18.8870118 73.2137947,18.9626172 74.024667,18.2438868 C74.8374564,17.5270703 74.9141346,16.2886719 74.1952762,15.4771094 C73.7927156,15.0234766 73.3556496,14.6923438 72.8189019,14.2865625 Z" id="Shape"></path>
            <path d="M2.74074074,20.5838281 C3.8257379,20.5838281 4.7037037,19.7062304 4.7037037,18.6238281 L4.7037037,3.92 L19.4297598,3.92 C20.5147569,3.92 21.3927228,3.04240236 21.3927228,1.96 C21.3927228,0.877597644 20.5147569,0 19.4297598,0 L2.74074074,0 C1.65574359,0 0.777777778,0.877597644 0.777777778,1.96 L0.777777778,18.6238281 C0.777777778,19.7062304 1.65574359,20.5838281 2.74074074,20.5838281 Z" id="Shape"></path>
            <path d="M93.037037,0 L76.348018,0 C75.2630208,0 74.385055,0.877597644 74.385055,1.96 C74.385055,3.04240236 75.2630208,3.92 76.348018,3.92 L91.0740741,3.92 L91.0740741,18.6238281 C91.0740741,19.7062304 91.9520399,20.5838281 93.037037,20.5838281 C94.1220342,20.5838281 95,19.7062304 95,18.6238281 L95,1.96 C95,0.877597644 94.1220342,0 93.037037,0 Z" id="Shape"></path>
            <path d="M93.037037,73.4952149 C91.9520399,73.4952149 91.0740741,74.3728125 91.0740741,75.4552149 L91.0740741,90.16 L76.348018,90.16 C75.2630208,90.16 74.385055,91.0375976 74.385055,92.12 C74.385055,93.2024024 75.2630208,94.08 76.348018,94.08 L93.037037,94.08 C94.1220342,94.08 95,93.2024024 95,92.12 L95,75.4552149 C95,74.3728125 94.1220342,73.4952149 93.037037,73.4952149 Z" id="Shape"></path>
            <path d="M2.74074074,94.08 L19.4297598,94.08 C20.5147569,94.08 21.3927228,93.2024024 21.3927228,92.12 C21.3927228,91.0375976 20.5147569,90.16 19.4297598,90.16 L4.7037037,90.16 L4.7037037,75.4552149 C4.7037037,74.3728125 3.8257379,73.4952149 2.74074074,73.4952149 C1.65574359,73.4952149 0.777777778,74.3728125 0.777777778,75.4552149 L0.777777778,92.12 C0.777777778,93.2024024 1.65574359,94.08 2.74074074,94.08 Z" id="Shape"></path>
            <path d="M93.037037,42.6233007 L80.4703121,42.6233007 C80.1972657,41.3468603 79.8766547,40.0902783 79.4649884,38.8592967 C79.1218533,37.8333592 78.0119357,37.2792382 76.9825305,37.6199413 C75.953125,37.9625585 75.3991248,39.0736717 75.74226,40.0996092 C76.0187808,40.9270824 76.2495346,41.7699877 76.4556072,42.6233007 L74.0850515,42.6233007 C73.7549755,40.1492552 73.0161088,37.6546337 71.5575449,35.2197069 C65.4980468,25.1124998 57.6442781,20.9886522 44.4958768,20.9886522 L44.4747902,20.9886522 C38.4057074,20.8546677 31.4509911,24.7344724 26.2502894,31.1638085 C25.0311052,32.6711328 23.955693,34.2808592 22.9147858,35.8360351 C21.2435596,38.3353223 19.6359524,40.7223975 17.5354477,42.6233007 L2.74074074,42.6233007 C1.65574359,42.6233007 0.777777778,43.5008984 0.777777778,44.5833007 C0.777777778,45.6657031 1.65574359,46.5433007 2.74074074,46.5433007 L14.6160436,46.5433007 C14.6645665,46.6866161 14.6930813,46.8344775 14.7773075,46.9682226 C15.3562283,47.8860156 16.5696613,48.1616406 17.4840495,47.5845507 C18.0059407,47.2566478 18.4977599,46.9072118 18.9692112,46.5433007 L25.0762736,46.5433007 C24.8425247,46.8628295 24.6050618,47.1818799 24.3429181,47.4859764 C21.8987991,50.3274022 18.8278356,52.5084764 15.8910589,54.4981444 C14.9939234,55.1068163 14.7600548,56.325117 15.3696469,57.2208984 C15.9773219,58.1176366 17.1984229,58.3492382 18.0955584,57.7424804 C21.1128472,55.6973047 24.561451,53.2473047 27.3199509,50.04125 C28.3067039,48.8967603 29.0854674,47.6837232 29.7341173,46.5433007 L34.2139237,46.5433007 C31.3611337,52.0288842 27.1249005,56.6418946 21.3007089,60.5829491 C19.4220919,61.8538866 17.5396412,63.2109569 15.5498408,64.7335937 C14.6872106,65.3910741 14.5242694,66.6218163 15.1837023,67.4812304 C15.8450522,68.3416014 17.0795718,68.5062109 17.9345342,67.8458594 C19.8668259,66.3701172 21.6860171,65.0561134 23.5013745,63.8272851 C30.5074892,59.0879467 35.4349049,53.4254321 38.5778742,46.5433007 L55.2494011,46.5433007 C55.8205342,48.0452417 56.0004884,49.671477 55.7311562,51.2739062 C54.9643738,55.8590429 52.3707322,59.5254295 49.6831599,62.8051757 C43.2211012,70.6863281 35.290654,76.9625389 29.1046371,81.5495899 C28.2324222,82.194629 28.0522283,83.4225 28.6982424,84.2914844 C29.0835506,84.8092384 29.67589,85.0829493 30.2758971,85.0829493 C30.6822919,85.0829493 31.0925203,84.9575783 31.4433234,84.6963087 C37.8114512,79.9752736 45.9853517,73.5019141 52.7196183,65.2877149 C55.606554,61.7658399 58.6813515,57.4237891 59.6034072,51.9218165 C59.9065258,50.1132667 59.8072036,48.286294 59.3581566,46.5433009 L62.8428232,46.5433009 C62.9173449,47.3345265 62.9451407,48.1283839 62.875651,48.9205665 C62.6916232,51.0289063 62.3120659,53.0865236 61.9095052,55.2637696 C61.5548682,57.1921875 61.1868127,59.1875976 60.9701968,61.2098047 C60.5446325,65.1786132 61.4283492,68.9875976 63.5964265,72.5305274 C64.7581019,74.4273632 66.5332032,75.8294141 68.8699724,76.6964844 C69.0961732,76.7797462 69.326208,76.8199415 69.5543257,76.8199415 C70.3517794,76.8189844 71.1013091,76.3308986 71.3946034,75.5413476 C71.7722438,74.5268946 71.2546656,73.3985547 70.2386789,73.0214844 C68.7453702,72.4683203 67.6373696,71.6146486 66.9472655,70.4863087 C65.2392576,67.6975196 64.5414857,64.7173243 64.8731191,61.6270705 C65.0743996,59.7512891 65.4117838,57.9166603 65.7702546,55.973887 C66.1708985,53.8014261 66.584961,51.5562306 66.7862413,49.2622268 C66.8659148,48.3547219 66.844948,47.4475759 66.7792924,46.5433011 L70.3784971,46.5433011 C70.3286563,48.5335672 70.0612408,50.5237138 69.7479384,52.4711527 C69.634838,53.1774419 69.5294055,53.8846879 69.4239728,54.5919341 C69.2725333,55.6169145 69.1191768,56.6409381 68.9428168,57.6601763 C68.0897714,62.5553912 69.586914,66.8639459 73.3939886,70.4652544 C73.595269,70.6585747 73.7869646,70.8643365 73.9767432,71.0691412 C74.3639683,71.4844928 74.8892144,71.6940827 75.4144603,71.6940827 C75.8936992,71.6940827 76.3729384,71.5199029 76.7524955,71.1686725 C77.5461154,70.4317584 77.5902053,69.1914459 76.8521773,68.3990241 C76.6048899,68.1348836 76.3595196,67.8716999 76.0949797,67.6228718 C73.2636357,64.9412702 72.1882233,61.9026961 72.811234,58.3310553 C72.9933447,57.280235 73.1505353,56.2236725 73.3077256,55.16711 C73.4112413,54.4742194 73.5128399,53.7813287 73.6240233,53.0913093 C73.9590114,51.0109625 74.2568584,48.8056037 74.3061001,46.5433015 L77.1440336,46.5433015 C77.5951174,50.563072 77.3709533,55.007525 76.4687859,60.2833991 C76.3441837,61.016485 76.2157477,61.7505281 76.027886,62.4673444 C75.7518443,63.5143366 76.3786889,64.5862116 77.4272639,64.8608796 C77.5940394,64.9049024 77.7627315,64.925 77.9275897,64.925 C78.7978878,64.925 79.5934245,64.343125 79.8234592,63.4626562 C80.0419922,62.6329101 80.1972657,61.7859373 80.3391204,60.9418359 C81.2736364,55.4785032 81.5261953,50.8090283 81.0966774,46.5433007 L93.037037,46.5433007 C94.1220342,46.5433007 95,45.6657031 95,44.5833007 C95,43.5008984 94.1220342,42.6233007 93.037037,42.6233007 Z M41.2588568,42.6233007 C42.6702156,41.3279589 44.3864905,40.5483373 46.2575593,40.4240429 L46.274812,40.4240429 C48.6007984,40.4240429 50.7316149,41.2024683 52.435669,42.6233007 L41.2588568,42.6233007 Z M57.6290622,42.6233007 C57.3200728,42.1490917 56.9890386,41.6863672 56.6167897,41.2480467 C54.0595703,38.2353123 50.2965856,36.507871 46.1655454,36.507871 L46.1252894,36.507871 C41.981789,36.7787109 38.4695662,38.9822754 36.2135485,42.6233007 L31.851515,42.6233007 C35.3827877,36.4956688 39.931844,33.2546826 46.052445,32.5448047 C50.28125,32.0576757 54.6614945,33.6721875 58.0717593,36.9835156 C59.7916283,38.6522192 61.0878499,40.5793212 61.9066298,42.6233007 L57.6290622,42.6233007 L57.6290622,42.6233007 Z M66.0430615,42.6233007 C65.093689,39.5324487 63.3268547,36.6161351 60.8091726,34.1727149 C56.5458624,30.0364257 50.9962748,28.021875 45.6000435,28.6516016 C37.5864484,29.5801612 31.6287888,34.1599147 27.3840491,42.6233009 L22.8829165,42.6233009 C24.081613,41.1340406 25.1428879,39.5643899 26.179362,38.0132813 C27.2183522,36.4619337 28.1979167,34.9967188 29.3059172,33.6272071 C33.6133173,28.3022851 39.4006075,24.9048243 44.177662,24.9048243 C44.2658421,24.9048243 44.3616898,24.9096094 44.4422019,24.9076953 C58.0180844,24.9076953 63.7536168,29.8354493 68.1875361,37.2323437 C69.2353923,38.9814379 69.8237779,40.7907054 70.1262975,42.6233007 L66.0430615,42.6233007 Z" id="Shape"></path>
        </g>
    </g>
</svg>