<?xml version="1.0" encoding="UTF-8"?>
<svg width="63px" height="99px" viewBox="0 0 63 99" version="1.1" xmlns="http://www.w3.org/2000/svg" xmlns:xlink="http://www.w3.org/1999/xlink">
    <!-- Generator: Sketch 43.1 (39012) - http://www.bohemiancoding.com/sketch -->
    <title>Group 4</title>
    <desc>Created with Sketch.</desc>
    <defs></defs>
    <g id="Page-1" stroke="none" stroke-width="1" fill="none" fill-rule="evenodd">
        <g id="Group-4" fill-rule="nonzero" fill="#000000">
            <g id="Group" transform="translate(0.339623, 0.000000)">
                <path d="M36.1132075,37.686747 L36.1132075,34.4096386 C36.1132075,31.6994699 33.9037358,29.4939759 31.1886792,29.4939759 C28.4736226,29.4939759 26.2641509,31.6994699 26.2641509,34.4096386 L26.2641509,37.686747 C26.2641509,40.3969157 28.4736226,42.6024096 31.1886792,42.6024096 C33.9037358,42.6024096 36.1132075,40.3969157 36.1132075,37.686747 Z" id="Shape"></path>
                <path d="M39.3962264,54.0722892 C39.3962264,49.5547952 35.7143208,45.8795181 31.1886792,45.8795181 C26.6630377,45.8795181 22.9811321,49.5547952 22.9811321,54.0722892 L22.9811321,58.9879518 L39.3962264,58.9879518 L39.3962264,54.0722892 Z" id="Shape"></path>
                <path d="M55.8113208,72.0963855 L36.1132075,72.0963855 L36.1132075,91.7590361 L55.8113208,91.7590361 L55.8113208,72.0963855 Z M45.7127547,89.3503614 C45.4484717,89.7731084 45.0036226,90.0533012 44.5078868,90.109012 C44.4438679,90.1172048 44.3814906,90.1204819 44.3207547,90.1204819 C43.8873962,90.1204819 43.4688113,89.9500723 43.1602075,89.6403855 L38.2356792,84.7247229 L40.5567736,82.4078072 L44.022,85.8667952 L51.1363019,74.5034217 L53.9186604,76.2419277 L45.7127547,89.3503614 Z" id="Shape"></path>
                <path d="M1.64150943,98.313253 L60.7358491,98.313253 C61.6419623,98.313253 62.3773585,97.5791807 62.3773585,96.6746988 L62.3773585,24.5783133 C62.3773585,23.6738313 61.6419623,22.939759 60.7358491,22.939759 L1.64150943,22.939759 C0.735396226,22.939759 0,23.6738313 0,24.5783133 L0,96.6746988 C0,97.5791807 0.735396226,98.313253 1.64150943,98.313253 Z M59.0943396,70.4578313 L59.0943396,93.3975904 C59.0943396,94.3037108 58.3605849,95.0361446 57.4528302,95.0361446 L34.4716981,95.0361446 C33.5639434,95.0361446 32.8301887,94.3037108 32.8301887,93.3975904 L32.8301887,70.4578313 C32.8301887,69.5517108 33.5639434,68.8192771 34.4716981,68.8192771 L57.4528302,68.8192771 C58.3605849,68.8192771 59.0943396,69.5517108 59.0943396,70.4578313 Z M19.6981132,54.0722892 C19.6981132,49.6514699 22.2211132,45.8139759 25.9013774,43.9001446 C24.1301887,42.3959518 22.9811321,40.1839036 22.9811321,37.686747 L22.9811321,34.4096386 C22.9811321,29.8921446 26.6630377,26.2168675 31.1886792,26.2168675 C35.7143208,26.2168675 39.3962264,29.8921446 39.3962264,34.4096386 L39.3962264,37.686747 C39.3962264,40.1839036 38.2471698,42.3959518 36.4759811,43.9001446 C40.1562453,45.8139759 42.6792453,49.6514699 42.6792453,54.0722892 L42.6792453,60.626506 C42.6792453,61.5326265 41.9454906,62.2650602 41.0377358,62.2650602 L21.3396226,62.2650602 C20.4318679,62.2650602 19.6981132,61.5326265 19.6981132,60.626506 L19.6981132,54.0722892 Z M3.28301887,78.6506024 L29.5471698,78.6506024 L29.5471698,81.9277108 L3.28301887,81.9277108 L3.28301887,78.6506024 Z M3.28301887,85.2048193 L29.5471698,85.2048193 L29.5471698,88.4819277 L3.28301887,88.4819277 L3.28301887,85.2048193 Z M3.28301887,91.7590361 L29.5471698,91.7590361 L29.5471698,95.0361446 L3.28301887,95.0361446 L3.28301887,91.7590361 Z" id="Shape"></path>
                <path d="M22.9811321,19.6626506 L39.3962264,19.6626506 L39.3962264,8.19277108 C39.3962264,3.67527711 35.7143208,0 31.1886792,0 C26.6630377,0 22.9811321,3.67527711 22.9811321,8.19277108 L22.9811321,19.6626506 Z M26.2641509,8.19277108 C26.2641509,5.48260241 28.4736226,3.27710843 31.1886792,3.27710843 C33.9037358,3.27710843 36.1132075,5.48260241 36.1132075,8.19277108 L36.1132075,11.4698795 C36.1132075,12.376 35.3794528,13.1084337 34.4716981,13.1084337 L27.9056604,13.1084337 C26.9979057,13.1084337 26.2641509,12.376 26.2641509,11.4698795 L26.2641509,8.19277108 Z" id="Shape"></path>
                <path d="M32.8301887,8.19277108 C32.8301887,7.28828916 32.0947925,6.55421687 31.1886792,6.55421687 C30.282566,6.55421687 29.5471698,7.28828916 29.5471698,8.19277108 L29.5471698,9.8313253 L32.8301887,9.8313253 L32.8301887,8.19277108 Z" id="Shape"></path>
            </g>
        </g>
    </g>
</svg>