<?xml version="1.0" encoding="UTF-8"?>
<svg width="94px" height="89px" viewBox="0 0 94 89" version="1.1" xmlns="http://www.w3.org/2000/svg" xmlns:xlink="http://www.w3.org/1999/xlink">
    <!-- Generator: Sketch 43.1 (39012) - http://www.bohemiancoding.com/sketch -->
    <title>Group 6</title>
    <desc>Created with Sketch.</desc>
    <defs></defs>
    <g id="Page-1" stroke="none" stroke-width="1" fill="none" fill-rule="evenodd">
        <g id="Group-6" fill-rule="nonzero" fill="#000000">
            <path d="M47,75.3076923 C37.5322614,75.3076923 29.8571429,67.6448736 29.8571429,58.1923077 C29.8571429,48.7397418 37.5322614,41.0769231 47,41.0769231 C56.4677386,41.0769231 64.1428571,48.7397418 64.1428571,58.1923077 C64.1428571,67.6448736 56.4677386,75.3076923 47,75.3076923 Z M47,47.9230769 C41.3193569,47.9230769 36.7142857,52.5207681 36.7142857,58.1923077 C36.7142857,63.8638472 41.3193569,68.4615385 47,68.4615385 C52.6806431,68.4615385 57.2857143,63.8638472 57.2857143,58.1923077 C57.2857143,52.5207681 52.6806431,47.9230769 47,47.9230769 Z M47,89 C30.0313143,89 13.7822857,79.9993615 2.4152,64.3062654 L2.4152,64.3045538 C-0.229982115,60.6576292 -0.229982115,55.7269862 2.4152,52.0800615 C13.7822857,36.3852538 30.0313143,27.3846154 47,27.3846154 C63.9686857,27.3846154 80.2177143,36.3852538 91.5848,52.07835 C94.2299516,55.7259149 94.2299516,60.6569889 91.5848,64.3045538 C80.2177143,79.9993615 63.9686857,89 47,89 Z M7.97325714,60.2951038 C18.1818286,74.3899654 32.0401143,82.1538462 47,82.1538462 C61.9598857,82.1538462 75.8181714,74.3899654 86.0267429,60.2951038 C86.9373896,59.0401501 86.9373896,57.3430961 86.0267429,56.0881423 C75.8181714,41.99465 61.9598857,34.2307692 47,34.2307692 C32.0401143,34.2307692 18.1818286,41.99465 7.97325714,56.0895115 C7.06261044,57.3444653 7.06261044,59.0415193 7.97325714,60.2964731 L7.97325714,60.2951038 Z M43.5714286,3.42307692 L43.5714286,20.5384615 C43.5714286,22.4289747 45.1064523,23.9615385 47,23.9615385 C48.8935477,23.9615385 50.4285714,22.4289747 50.4285714,20.5384615 L50.4285714,3.42307692 C50.4285714,1.53256374 48.8935477,0 47,0 C45.1064523,0 43.5714286,1.53256374 43.5714286,3.42307692 Z M89.4217143,16.1843077 L78.3995429,29.2946923 C77.1704807,30.6972489 75.0434636,30.8604973 73.6141273,29.6619727 C72.1847909,28.4634481 71.978369,26.3435686 73.1497143,24.8926154 L84.1718857,11.7822308 C85.4009478,10.3796742 87.5279649,10.2164258 88.9573013,11.4149504 C90.3866377,12.6134749 90.5930595,14.7333545 89.4217143,16.1843077 L89.4217143,16.1843077 Z M9.82811429,11.7818885 L20.8502857,24.8922731 C22.0254919,26.3429565 21.82062,28.4660703 20.3896334,29.666072 C18.9586467,30.8660737 16.8286939,30.7009051 15.6004571,29.2946923 L4.57828571,16.1843077 C3.4030795,14.7336243 3.60795143,12.6105105 5.03893807,11.4105088 C6.46992471,10.2105071 8.59987751,10.3756756 9.82811429,11.7818885 L9.82811429,11.7818885 Z" id="Shape"></path>
        </g>
    </g>
</svg>